<?xml version="1.0" standalone="no"?><!DOCTYPE svg PUBLIC "-//W3C//DTD SVG 1.1//EN" "http://www.w3.org/Graphics/SVG/1.1/DTD/svg11.dtd"><svg t="1510298961299" class="icon" style="" viewBox="0 0 1024 1024" version="1.1" xmlns="http://www.w3.org/2000/svg" p-id="635" xmlns:xlink="http://www.w3.org/1999/xlink" width="200" height="200"><defs><style type="text/css"></style></defs><path d="M837.485714 303.177143a163.108571 163.108571 0 0 0-163.474285-163.108572H349.988571A163.108571 163.108571 0 0 0 186.514286 303.177143v323.657143h650.971428V303.177143zM796.525714 585.142857H227.474286V303.177143a122.514286 122.514286 0 0 1 122.514285-122.514286h324.022858a122.514286 122.514286 0 0 1 122.514285 122.148572V585.142857z m-658.285714 89.234286v40.594286h351.451429v167.497142h40.96v-166.4h351.451428v-40.594285z m268.068571-388.388572l-74.971428 194.925715h36.571428l20.48-56.685715h73.142858l21.942857 56.685715h36.571428L438.857143 285.988571z m-9.142857 109.714286l18.651429-49.371428c2.56-6.948571 4.754286-14.262857 6.948571-21.577143 2.56 7.314286 5.485714 15.36 8.777143 24.502857l17.554286 46.08zM658.285714 303.177143a68.022857 68.022857 0 0 0-29.257143-14.262857 159.451429 159.451429 0 0 0-34.377142-2.925715h-66.56v194.56h73.142857a132.754286 132.754286 0 0 0 31.085714-3.291428 73.142857 73.142857 0 0 0 23.771429-9.874286 73.142857 73.142857 0 0 0 17.92-17.92 94.72 94.72 0 0 0 13.531428-28.525714 133.851429 133.851429 0 0 0 5.12-38.765714 129.462857 129.462857 0 0 0-7.68-45.714286 79.725714 79.725714 0 0 0-26.697143-33.28z m-7.314285 113.737143a54.857143 54.857143 0 0 1-12.8 21.942857 36.571429 36.571429 0 0 1-14.994286 8.777143 94.354286 94.354286 0 0 1-27.794286 3.291428h-36.571428V316.342857h36.571428a95.085714 95.085714 0 0 1 30.72 3.657143 44.617143 44.617143 0 0 1 21.577143 19.382857 83.017143 83.017143 0 0 1 10.605714 42.788572 109.714286 109.714286 0 0 1-4.754285 34.742857z" p-id="636"></path></svg>