<?xml version="1.0" standalone="no"?><!DOCTYPE svg PUBLIC "-//W3C//DTD SVG 1.1//EN" "http://www.w3.org/Graphics/SVG/1.1/DTD/svg11.dtd"><svg t="1510323976474" class="icon" style="" viewBox="0 0 1024 1024" version="1.1" xmlns="http://www.w3.org/2000/svg" p-id="3493" xmlns:xlink="http://www.w3.org/1999/xlink" width="200" height="200"><defs><style type="text/css"></style></defs><path d="M571.392 719.36c3.072-9.216 13.824-25.6 13.824-25.6l-12.288-25.6-16.384 16.384-19.456 10.752 15.36 25.6c-1.024 0 15.872 7.68 18.944-1.536z m-45.568 7.68l-20.992-25.6-20.992-25.6h-10.752s17.92 30.208 22.528 37.888c4.608 7.68 20.992 28.672 20.992 28.672s19.456 9.216 30.208 10.752c10.752 1.536 16.384 1.536 16.384 1.536l25.6 4.608-31.744-15.36-31.232-16.896z m68.096-4.608l1.536-16.384-13.824 17.92 12.288-1.536zM308.224 267.264c19.456-3.072 40.96-16.384 40.96-16.384l-36.352 1.536s-28.672 6.144-34.816 13.824c-6.144 7.68-9.216 16.384-9.216 16.384l16.384 3.072c0.512-0.512 3.072-15.36 23.04-18.432z m379.392 447.488c-9.216-7.68-27.136 1.536-27.136 1.536l-10.752-12.288-6.144 17.92 22.528 12.288 12.288 16.384 17.92 9.216 6.144-9.216 15.36 15.36 4.608-16.384-15.36-17.92s-10.24-9.216-19.456-16.896z m144.384-420.352h-35.84l-36.352-7.68-37.888-10.752-7.68-12.288-30.208-3.072h-16.384l7.68 19.456-36.352 3.072s-9.216-15.36-16.384-15.36c-7.68 0-36.352 1.536-36.352 1.536s-19.456-4.608-25.6-10.752c-6.144-6.144-39.424-10.752-39.424-10.752l-27.136-15.36-33.28-1.536-7.68 4.608 31.744 16.384s-17.92 9.216-25.6 9.216-27.136 3.072-27.136 3.072l-31.744 10.752-36.352 3.072-22.528 10.752-28.672 10.752-34.816-4.608-30.208 1.536-25.6 6.144-27.648-8.192h-0.512c57.344 116.224 558.08 78.336 637.952 0zM165.888 343.04l-4.608 24.064 27.136 24.064 19.456 28.672-3.072 19.456 13.824 19.456s-16.384 4.608-25.6 1.536c-9.216-3.072-30.208 4.608-30.208 4.608l-6.144 28.672 27.136-1.536 7.68 19.456 20.992 48.128s28.672 60.416 25.6 72.704c0 0 33.28-12.288 44.032-24.064 10.752-12.288 19.456-31.744 19.456-31.744l-12.288-17.92-28.672-10.752-28.672-24.064-19.456-16.384 9.216-13.824s10.752-10.752 16.384-4.608c6.144 6.144 3.072 16.384 12.288 22.528 9.216 6.144 17.92 25.6 27.136 28.672 9.216 3.072 24.064 16.384 37.888 16.384s27.136 3.072 33.28 9.216c6.144 6.144 19.456 15.36 17.92 22.528-1.536 7.68 6.144 39.424 16.384 49.664 10.752 10.752 25.6 28.672 25.6 28.672s-4.608-15.36-7.68-24.064c-3.072-9.216 0-22.528 6.144-28.672 6.144-6.144 16.384-15.36 20.992-24.064 4.608-9.216 25.6-15.36 31.744-4.608 6.144 10.752 17.92 24.064 17.92 24.064l6.144 22.528 6.144 30.208 19.456 28.672-3.072-19.456s-20.992-33.28-9.216-44.032c12.288-10.752 28.672-6.144 28.672-6.144v16.384l-6.144 16.384 19.456-22.528-6.144-24.064-9.216-17.92 13.824-3.072-6.144-10.752s24.064 7.68 31.744 1.536c5.632-4.608 16.384-15.36 22.016-20.992l3.584 16.384 6.144-16.384-6.144-2.56 0.512-0.512 7.68-22.528-7.68-31.744V486.4l-7.68-19.456s13.824-6.144 19.456 1.536c6.144 7.68 13.824 34.816 13.824 34.816l20.992-16.384-7.68-17.92s9.216-9.216 16.384-13.824c7.68-4.608 30.208-28.672 30.208-28.672l12.288-3.072 10.752-22.528s-7.68-16.384-15.36-17.92c-7.68-1.536-16.384-13.824-16.384-13.824s28.672-10.752 36.352-13.824c7.68-3.072 34.816 0 34.816 0l27.136-9.216-4.608 17.92-3.072 37.888 16.384-15.36 15.36-20.992 15.36-13.824 47.104-9.216 5.12-7.168c-5.12-26.624-25.088-42.496-25.088-42.496-18.432 12.8-605.696 54.784-636.416 1.536 0 0-17.92 15.872-28.672 48.64z m420.352 253.952l6.144 25.6 10.752 16.384 6.144 24.064s6.144 0 6.144-12.288-16.384-36.352-16.384-36.352l-12.8-17.408z m63.488-88.064c15.36-6.144 31.744-15.36 31.744-15.36s4.608-17.92 7.68-25.6S701.44 455.68 701.44 455.68v-17.92s-9.216-1.536-15.36 7.68-15.36 28.672-15.36 28.672-12.288 10.752-17.92 13.824c-6.144 3.072-22.528 24.064-22.528 24.064l9.216 12.288c-0.512 0-4.608-9.216 10.24-15.36z m72.704 226.816l24.064 1.536-13.824-13.824-10.24 12.288z" fill="" p-id="3494"></path></svg>