<?xml version="1.0" standalone="no"?><!DOCTYPE svg PUBLIC "-//W3C//DTD SVG 1.1//EN" "http://www.w3.org/Graphics/SVG/1.1/DTD/svg11.dtd"><svg t="1510300582809" class="icon" style="" viewBox="0 0 1024 1024" version="1.1" xmlns="http://www.w3.org/2000/svg" p-id="5740" xmlns:xlink="http://www.w3.org/1999/xlink" width="200" height="200"><defs><style type="text/css"></style></defs><path d="M146.285714 73.142857a73.142857 73.142857 0 0 0-73.142857 73.142857v438.857143a73.142857 73.142857 0 0 0 73.142857 73.142857h731.428572a73.142857 73.142857 0 0 0 73.142857-73.142857V146.285714a73.142857 73.142857 0 0 0-73.142857-73.142857H146.285714z m0-73.142857h731.428572a146.285714 146.285714 0 0 1 146.285714 146.285714v438.857143a146.285714 146.285714 0 0 1-146.285714 146.285714H146.285714a146.285714 146.285714 0 0 1-146.285714-146.285714V146.285714a146.285714 146.285714 0 0 1 146.285714-146.285714z m512 658.285714v73.142857h219.428572V658.285714H658.285714z" p-id="5741"></path><path d="M146.285714 0h731.428572a146.285714 146.285714 0 0 1 146.285714 146.285714v73.142857H0V146.285714a146.285714 146.285714 0 0 1 146.285714-146.285714zM975.725714 826.660571l-155.062857 155.501715a40.009143 40.009143 0 0 1-56.685714 0l-154.989714-155.501715a40.374857 40.374857 0 0 1 0-56.978285 40.009143 40.009143 0 0 1 56.758857 0l86.528 86.820571v-103.862857a236.324571 236.324571 0 0 0-236.763429-235.666286 40.228571 40.228571 0 0 1 0-80.457143c174.665143 0 316.854857 141.824 316.854857 316.050286v104.228572l86.528-86.747429a40.155429 40.155429 0 0 1 56.758857 56.612571z" p-id="5742"></path></svg>