<?xml version="1.0" standalone="no"?><!DOCTYPE svg PUBLIC "-//W3C//DTD SVG 1.1//EN" "http://www.w3.org/Graphics/SVG/1.1/DTD/svg11.dtd"><svg t="1510302497205" class="icon" style="" viewBox="0 0 1024 1024" version="1.1" xmlns="http://www.w3.org/2000/svg" p-id="15670" xmlns:xlink="http://www.w3.org/1999/xlink" width="200" height="200"><defs><style type="text/css"></style></defs><path d="M891.391 133.439h-55.773V35.541h-54.403v97.898H242.742V35.541H188.34v97.898h-55.807c-67.301 0-122.063 58.68-122.063 130.781v209.643c0 72.101 54.762 130.748 122.063 130.748h55.807v383.757h54.402V763.442h538.472v224.925h54.403V604.61h55.773c67.334 0 122.128-58.647 122.128-130.748V264.22c0.001-72.101-54.793-130.781-122.127-130.781zM575.817 546.355l76.411-354.661h121.998l-76.411 354.661H575.817z m-355.737 0l76.378-354.661h122.063l-76.412 354.661H220.08z m254.248-354.661h121.998l-76.348 354.661h-122.03l76.38-354.661zM64.84 473.862V264.22c0-39.969 30.369-72.525 67.693-72.525h108.119l-76.412 354.66h-31.708c-37.324 0-67.692-32.524-67.692-72.493z m716.374 231.26H242.742V604.61h538.472v100.512z m177.838-231.26c0 39.969-30.304 72.493-67.661 72.493H753.654l76.412-354.661h61.324c37.357 0 67.661 32.557 67.661 72.525v209.643h0.001z" p-id="15671"></path></svg>