<?xml version="1.0" standalone="no"?><!DOCTYPE svg PUBLIC "-//W3C//DTD SVG 1.1//EN" "http://www.w3.org/Graphics/SVG/1.1/DTD/svg11.dtd"><svg t="1511765192381" class="icon" style="" viewBox="0 0 1024 1024" version="1.1" xmlns="http://www.w3.org/2000/svg" p-id="3825" xmlns:xlink="http://www.w3.org/1999/xlink" width="200" height="200"><defs><style type="text/css"></style></defs><path d="M603.197 731.98c0-26.633-21.488-48.772-48.772-48.772-26.682 0-48.772 22.138-48.772 48.772 0 27.278 22.09 48.772 48.772 48.772 27.283-0.001 48.772-21.495 48.772-48.772z m385.538-314.42c-9.194-40.007-32.16-71.445-70.377-71.445h-76.81c-0.498-18.07 0-36.603 0-55.083 0.453-25.414 0.911-50.805 0-75.75 0-10.76-9.691-18.963-21.177-18.963h-0.922c-39.14-0.824-91.554-0.429-138.954 0H619.72c-8.271 0-15.163 4.33-18.337 10.779-27.19 40.865-62.608 98.547-92.514 148.07-6.468 10.276-12.408 20.201-18.417 30.082-13.788-17.655-29.024-37.866-44.646-58.096-23.473-30.985-47.366-61.534-63.452-82.2-18.42-22.81-36.837-33.09-57.51-31.407-18.875 1.287-36.838 12.93-56.132 34.003L161.957 363.331c-6.014 6.877-6.477 16.763-0.961 24.108 6.467 9.023 11.066 16.793 16.119 24.923 7.852 12.93 16.124 25.859 30.326 44.338 6.472 8.632 19.377 10.35 28.57 4.296 2.254-1.682 4.136-3.438 5.512-5.116 9.69-11.642 17.036-20.24 24.39-28.907 16.539-19.767 33.579-39.534 51.503-59.774 5.097-6.014 4.175-10.31 5.55-9.491 5.516 2.58 15.203 15.51 29.907 37.036L475.25 569.907c4.136 5.59 23.551 15.758 30.404 15.758 141.297 2.185 248.955 0 390.172 0l22.532-7.2c37.295 0 60.764-32.266 69.918-73.527 3.253-13.822 5.092-28.867 5.092-43.943 0-15.04-1.839-29.686-4.633-43.435z m-190.453-49.888c0 12.729-9.505 22.908-21.386 22.908H627.475c-3.37 0-7.164-1.014-10.5-3.058-10.491-6.106-13.778-19.85-8.077-31.077l51.844-98.372c3.325-8.164 10.974-13.808 19.523-13.808h96.631c11.88 0 21.386 10.735 21.386 22.947v100.46z m-439.894 251.27c-44.605-9.027-79.15-20.2-103.078-39.148-22.982-18.085-37.262-44.733-43.694-84.809-0.425-2.974-1.376-6.013-3.717-8.558l-55.634-79.61c-6.014-9.032-18.88-11.646-28.488-5.628-0.96 0.434-1.878 1.293-2.8 2.151C62.551 450.68 17.94 507.09 34.942 583.236c5.477 24.098 17.46 46.484 34.5 64.998 16.08 18.908 37.72 33.989 62.15 44.767 64.822 27.512 152.284 23.25 236.025-40.07 8.724-6.413 10.105-18.914 3.214-27.113-3.214-3.867-7.809-6.018-12.443-6.875zM749.511 731.98c0-26.633-21.425-48.772-48.8-48.772-26.561 0-48.742 22.138-48.742 48.772 0 27.278 22.181 48.772 48.742 48.772 27.374-0.001 48.8-21.495 48.8-48.772z m198.918-68.846c-17.128-17.592-41.012-28.697-67.14-28.697H503.143c-26.092 0-49.97 11.104-67.104 28.697-17.09 17.627-27.926 41.773-27.926 68.617 0 26.415 10.383 50.059 27.03 67.684 0 0.425 0.448 0.888 0.897 1.39 17.133 17.587 41.012 28.698 67.104 28.698h378.143c25.677 0 48.664-10.647 65.753-27.307 0.492-0.503 0.942-0.931 1.39-1.39 17.09-17.626 27.892-42.197 27.892-69.075 0-25.922-10.31-50.064-26.995-67.65 0-0.464-0.444-0.464-0.897-0.967zM910.88 766.203l-0.864 0.804c-9.144 8.486-22.152 13.744-36.061 13.744H509.375c-14.266 0-27.74-5.662-36.886-14.548-0.429 0-0.864-0.406-0.864-0.845-9.144-8.486-14.743-20.645-14.743-33.578 0-13.34 6.033-25.464 15.606-34.39 9.58-8.93 22.62-14.183 36.886-14.183h364.581c14.343 0 28.379 6.276 37.948 15.207l-0.19-0.22c9.14 8.896 14.812 20.651 14.812 33.585 0.001 13.369-6.105 25.937-15.644 34.424z m-15.056-34.223c0-26.633-21.42-48.772-48.8-48.772-26.562 0-48.743 22.138-48.743 48.772 0 27.278 22.181 48.772 48.742 48.772 27.38-0.001 48.8-21.495 48.8-48.772z" p-id="3826"></path></svg>