<?xml version="1.0" standalone="no"?><!DOCTYPE svg PUBLIC "-//W3C//DTD SVG 1.1//EN" "http://www.w3.org/Graphics/SVG/1.1/DTD/svg11.dtd"><svg t="1510300963857" class="icon" style="" viewBox="0 0 1024 1024" version="1.1" xmlns="http://www.w3.org/2000/svg" p-id="9975" xmlns:xlink="http://www.w3.org/1999/xlink" width="200" height="200"><defs><style type="text/css"></style></defs><path d="M968.648649 171.589189l-442.810811-168.821621c-8.302703-2.767568-19.372973-2.767568-30.443243 0l-442.810811 168.821621c-16.605405 5.535135-27.675676 22.140541-27.675676 38.745946v592.25946c0 16.605405 11.07027 33.210811 24.908108 38.745946l442.810811 179.891891c5.535135 2.767568 11.07027 2.767568 16.605405 2.767568s11.07027 0 16.605406-2.767568l442.810811-179.891891c16.605405-5.535135 24.908108-22.140541 24.908108-38.745946v-592.25946c2.767568-16.605405-8.302703-33.210811-24.908108-38.745946z m-55.351352 600.562162l-401.297297 163.286487-401.297297-163.286487v-534.14054l138.378378-52.583784 412.367568 168.821622c11.07027 5.535135 16.605405 13.837838 16.605405 24.908108v210.335135c0 5.535135 0 8.302703 2.767568 11.07027 5.535135 13.837838 22.140541 19.372973 35.978378 11.07027l55.351351-27.675675c8.302703-5.535135 16.605405-13.837838 16.605406-24.908108v-240.778379c0-11.07027-8.302703-22.140541-16.605406-24.908108l-412.367567-154.983784 152.216216-58.118919 401.297297 152.216217v539.675675z" fill="#2c2c2c" p-id="9976"></path></svg>