<?xml version="1.0" standalone="no"?><!DOCTYPE svg PUBLIC "-//W3C//DTD SVG 1.1//EN" "http://www.w3.org/Graphics/SVG/1.1/DTD/svg11.dtd"><svg t="1508901130209" class="icon" style="" viewBox="0 0 1246 1024" version="1.1" xmlns="http://www.w3.org/2000/svg" p-id="6165" xmlns:xlink="http://www.w3.org/1999/xlink" width="243.359375" height="200"><defs><style type="text/css"></style></defs><path d="M1017.321739 868.173913l-316.104348 155.826087h-175.860869L186.991304 845.913043H0V601.043478l242.643478-66.782608H378.434783V0h868.173913v868.173913H1017.321739zM378.434783 601.043478h-133.565218l-178.086956 35.617392V779.130435h140.243478l318.330435 178.086956h171.408695l280.486957-133.565217v-42.295652l-26.713044-26.713044L667.826087 863.721739l-242.643478-109.078261 24.486956-51.2 220.382609 95.721739 28.93913-77.913043-31.165217-28.939131L378.434783 601.043478zM957.217391 66.782609H667.826087v191.443478l60.104348-53.426087 84.591304 60.104348L899.33913 200.347826l55.652174 57.878261L957.217391 66.782609z m222.608696 0h-155.826087v267.130434h-62.330435l-57.878261-51.2-89.043478 51.2-86.817391-51.2L667.826087 333.913043h-66.782609V66.782609h-155.826087v469.704348l284.939131 106.852173 28.93913 55.652174-20.034782 71.234783 244.869565-86.817391 62.330435 60.104347V823.652174h133.565217V66.782609z m-155.826087 467.478261h89.043478v89.043478h-89.043478v-89.043478z m-155.826087 0h89.043478v89.043478h-89.043478v-89.043478z" fill="#2c2c2c" p-id="6166"></path></svg>