<?xml version="1.0" standalone="no"?><!DOCTYPE svg PUBLIC "-//W3C//DTD SVG 1.1//EN" "http://www.w3.org/Graphics/SVG/1.1/DTD/svg11.dtd"><svg t="1510301189232" class="icon" style="" viewBox="0 0 1024 1024" version="1.1" xmlns="http://www.w3.org/2000/svg" p-id="13949" xmlns:xlink="http://www.w3.org/1999/xlink" width="200" height="200"><defs><style type="text/css"></style></defs><path d="M638.989507 484.831818c3.990806-7.981613 5.935045-13.20036 5.935046-15.860898-1.330269-10.539822-7.265314-16.474868-17.907465-17.805136-10.539822 0-18.521435 4.604777-23.84251 13.81433l-91.276906 136.710702-91.174578-136.608374c-5.321075-9.209553-13.302688-13.81433-23.84251-13.81433-10.64215 1.330269-16.577196 7.265314-17.907465 17.805137 1.330269 5.321075 3.274508 10.539822 5.935045 15.860897 1.330269 1.330269 2.046567 2.660538 2.046568 3.990807l81.351054 124.840611H420.620765c-14.530629 0-21.795943 5.935045-21.795942 17.805137 1.330269 9.311882 8.595583 14.530629 21.795942 15.860897h69.583292v35.610273h-69.480963c-14.530629 0-21.795943 5.935045-21.795943 17.805136 1.330269 9.209553 8.595583 14.530629 21.795943 15.860897H490.204057v79.304487c0 13.20036 7.265314 19.851704 21.795943 19.851704 14.530629 0 21.795943-6.651344 21.795943-19.851704v-79.304487h69.480963c13.20036-1.330269 20.465674-6.651344 21.795943-15.860897 0-11.870091-7.265314-17.805136-21.795943-17.805136h-69.480963V647.431598h69.480963c13.20036-1.330269 20.465674-6.651344 21.795943-15.860897 0-11.870091-7.265314-17.805136-21.795943-17.805137H555.694214l81.351054-124.840611c0-1.330269 0.61397-2.660538 1.944239-4.093135" fill="#2c2c2c" p-id="13950"></path><path d="M876.595983 957.179574H147.506346c-33.461377 0-60.680723-27.219346-60.680724-60.680723v-546.126512c0-33.461377 27.219346-60.680723 60.680724-60.680723h729.089637c33.461377 0 60.680723 27.219346 60.680723 60.680723v546.126512c-0.102328 33.461377-27.321675 60.680723-60.680723 60.680723zM147.506346 330.008994c-11.256121 0-20.363346 9.107225-20.363346 20.363345v546.126512c0 11.256121 9.107225 20.363346 20.363346 20.363345h729.089637c11.256121 0 20.363346-9.107225 20.363345-20.363345v-546.126512c0-11.256121-9.107225-20.363346-20.363345-20.363345H147.506346z" fill="#2c2c2c" p-id="13951"></path><path d="M310.515439 324.994904h-178.051364l25.889078-157.278705c5.423404-32.64275 36.121915-54.848006 68.969321-49.424603l114.198461 18.726092-31.005496 187.977216z m-132.105926-39.089438H277.361047l19.135405-116.75667-75.620665-12.381733c-11.460777-1.944239-22.205256 5.832717-24.149495 17.293495l-18.316779 111.844908z" fill="#2c2c2c" p-id="13952"></path><path d="M868.921355 324.994904h-178.051364l11.153792-68.150695c0.920955-5.423404-0.409313-10.949136-3.683821-15.553912s-8.083941-7.572299-13.609673-8.493255l-388.233837-63.648246 8.493255-52.085141c5.423404-32.64275 36.531228-54.745678 68.969322-49.424602l463.854502 76.029979c15.758569 2.558209 29.572899 11.153792 38.987109 24.251823 9.41421 13.098031 13.098031 28.958929 10.539822 44.717498l-18.419107 112.356551zM736.815429 285.905466h98.951534l13.098032-79.611472c0.920955-5.525732-0.409313-10.949136-3.683822-15.553912s-8.083941-7.572299-13.609673-8.493255l-463.854502-76.029979c-11.460777-1.944239-22.205256 5.935045-24.149495 17.293495l-2.251224 13.507345 349.65604 57.303887c15.758569 2.558209 29.572899 11.153792 38.987109 24.251824 9.41421 13.098031 13.098031 28.958929 10.539823 44.717497l-3.683822 22.61457z" fill="#2c2c2c" p-id="13953"></path><path d="M730.368742 324.994904h-459.454382L302.840811 130.673329l388.233837 63.648246c15.758569 2.558209 29.572899 11.153792 38.987109 24.251824 9.41421 13.098031 13.098031 28.958929 10.539822 44.717497l-10.232837 61.704008z m-413.406615-39.089438h380.354551l4.809434-29.061257c0.920955-5.525732-0.409313-10.949136-3.683822-15.553912s-8.083941-7.572299-13.609673-8.493255l-349.656041-57.303887-18.214449 110.412311z" fill="#2c2c2c" p-id="13954"></path></svg>