<?xml version="1.0" standalone="no"?><!DOCTYPE svg PUBLIC "-//W3C//DTD SVG 1.1//EN" "http://www.w3.org/Graphics/SVG/1.1/DTD/svg11.dtd"><svg t="1510323871661" class="icon" style="" viewBox="0 0 1024 1024" version="1.1" xmlns="http://www.w3.org/2000/svg" p-id="2560" xmlns:xlink="http://www.w3.org/1999/xlink" width="200" height="200"><defs><style type="text/css"></style></defs><path d="M514.520915 412.741345c18.136056 11.357675 40.348963 26.543539 60.994166 41.22696 40.850383 28.991288 197.538005 17.820877 261.480316 23.029506 63.880913 5.145184 112.13594 19.263739 112.13594 19.263739l-89.105411-147.840116c0 0 96.574522-144.891971 84.650959-141.879358-11.797697 3.012613-71.975265 4.455475-111.382786-6.65149-39.407522-11.106965-130.020262-11.860119-191.704137-11.860119-45.744857 0-101.404528-39.344077-127.006626-59.612703L514.583336 78.782298l-72.163553 0 0 769.636778 72.100108 0L514.519892 412.741345z" p-id="2561"></path><path d="M615.675756 680.184467l0 54.216809c102.972233 13.805424 174.069501 43.299155 174.069501 77.496002 0 47.440475-136.483464 85.906555-304.718073 85.906555s-304.654628-38.46608-304.654628-85.906555c0-33.508161 68.335365-62.497403 167.858032-76.680427l0-54.405097C186.585047 699.762361 70.621942 751.406578 70.621942 811.897278c0 76.807317 185.491645 138.994658 414.406265 138.994658 228.915643 0 414.405241-62.187341 414.405241-138.994658C899.37205 750.591003 780.458753 698.508811 615.675756 680.184467z" p-id="2562"></path></svg>