<?xml version="1.0" standalone="no"?><!DOCTYPE svg PUBLIC "-//W3C//DTD SVG 1.1//EN" "http://www.w3.org/Graphics/SVG/1.1/DTD/svg11.dtd"><svg t="1510323940781" class="icon" style="" viewBox="0 0 1247 1024" version="1.1" xmlns="http://www.w3.org/2000/svg" p-id="3267" xmlns:xlink="http://www.w3.org/1999/xlink" width="243.5546875" height="200"><defs><style type="text/css"></style></defs><path d="M1080.589899 189.628053 1080.589899 189.850654C1090.013357 192.521871 1098.67626 182.63466 1104.148543 177.329328 1108.786072 169.315679 1122.939808 156.015247 1132.585867 156.015247 1137.94685 157.814608 1132.660068 171.059389 1138.354953 175.567067 1139.059857 175.863869 1143.382034 181.0208 1142.584379 181.503103 1140.135764 187.902893 1135.850687 229.86325 1138.577554 231.60696 1138.225102 235.929137 1138.466253 238.600353 1135.257084 241.716772 1131.714012 246.966455 1123.16241 243.03383 1118.35793 243.03383 1116.577119 245.890548 1111.160486 247.87541 1110.14023 250.936179 1105.873704 263.698657 1127.948339 284.474784 1123.922964 298.183318L1123.700363 298.183318C1123.700363 299.741528 1120.917846 310.982897 1120.361343 313.13471 1119.823389 315.138122 1119.266886 316.585031 1117.244923 317.085884 1117.244923 317.920639 1108.915922 315.249423 1107.469014 315.101022 1104.241294 311.279699 1105.929354 302.857947 1104.148543 303.024898 1101.718478 303.3217 1099.807817 306.976072 1099.473915 306.976072 1098.991612 310.760295 1095.46709 322.576718 1091.478816 324.56158 1089.141501 327.436848 1083.817619 327.8635 1080.367297 327.8635L1080.367297 328.086102C1079.23574 328.698255 1079.272841 328.549855 1079.254291 330.275015 1082.927213 332.463929 1084.986276 336.507853 1084.800775 339.29037 1085.821031 344.261801 1078.883288 348.639628 1077.250878 347.637922 1069.775182 347.637922 1064.302899 343.668197 1057.699058 343.668197L1057.699058 343.890799C1054.897991 344.688453 1054.211637 354.000611 1052.134024 354.000611 1050.334663 361.123854 1043.879224 365.483131 1039.909499 371.363517L1039.464297 371.363517C1039.408646 371.511918 1039.334446 371.660319 1039.260245 371.80872 1034.492866 373.366929 1031.135296 377.577805 1027.480923 380.601474 1027.480923 384.274396 1024.531455 388.893374 1024.141903 393.1228 1012.32548 402.86161 997.429739 397.797429 988.803936 417.293598 988.562785 421.504474 983.257452 429.740725 983.257452 429.814925 978.657024 429.963326 973.982395 430.371429 969.474718 430.482729 969.122266 426.290404 972.516936 418.833258 977.469817 418.833258 977.469817 416.792745 968.825464 406.08933 972.813738 406.08933 972.887939 405.569927 972.962139 405.069074 973.03634 404.54967L973.258941 404.54967C973.258941 397.537727 982.756599 395.144763 980.141033 385.424503 978.712674 379.785269 972.312885 377.818956 967.471305 379.711068 967.471305 379.95222 930.63078 424.10149 930.593679 424.10149 928.868519 426.661406 914.900283 429.184221 911.487062 430.037527 907.016485 433.82175 904.215418 443.375058 911.04186 446.732629 912.006466 450.628153 914.139729 452.408964 914.139729 456.397238 915.716488 457.231993 926.902207 451.481458 932.578542 453.763122 934.136751 457.324744 935.472359 460.923466 935.472359 464.985941L935.694961 464.985941C936.641017 466.952253 942.558503 472.99959 944.803067 473.333492L944.803067 473.556093C945.118418 473.537543 944.728866 473.389142 945.025668 473.333492 953.52162 473.333492 953.55872 453.559071 969.91992 453.559071 976.931863 451.574209 983.127601 458.938604 991.252551 456.619839 996.149781 455.228581 999.2291 456.842441 1002.809272 458.604702 1002.809272 459.866109 1003.773878 468.937115 1000.360657 468.937115 999.507352 470.217073 982.033145 477.692769 981.699243 477.507267 983.220352 480.048633 966.451049 496.929237 964.132285 495.296827 963.575782 497.170388 957.917997 505.258238 957.917997 505.406638 957.101792 506.018792 955.469382 508.356107 955.469382 509.153761L955.246781 509.153761C954.449126 511.249924 952.371513 524.401955 952.371513 524.754407 952.816716 525.125409 952.557014 525.25526 952.816716 525.626262 953.039317 525.774663 953.261918 525.923064 953.48452 526.071465 953.48452 527.203022 955.914585 527.907926 955.914585 528.48298 980.530586 531.7849 981.532292 568.718177 990.362146 573.096003 990.362146 573.596856 990.621847 573.615407 990.807348 574.19046 996.984536 579.532893 1004.645733 582.593662 1011.694777 587.806244L1011.694777 588.251446C1020.246379 592.480872 1003.143174 592.944625 1002.809272 595.727142 1008.021854 598.67661 1013.88369 601.570428 1016.814608 610.01073L1016.592007 610.01073C1016.592007 619.582588 995.333576 628.02289 990.584747 633.309672L990.362146 633.309672 990.362146 633.958926C992.198607 634.62673 995.92718 634.404129 997.912042 634.404129 1003.198824 624.591119 1018.688169 632.048265 1025.922714 634.849332 1025.792863 635.275984 1025.941264 635.034833 1025.700112 635.275984 1024.271754 640.544217 1014.811196 643.252533 1014.811196 647.59326 1016.610557 647.59326 1021.748938 641.898375 1023.474099 644.736542 1023.474099 646.498803 1025.403311 650.950831 1023.6967 652.638891 1021.192435 655.569809 1018.78092 653.158294 1016.592007 655.068956L1016.369405 655.068956C1016.369405 666.403075 1029.502886 682.096471 1010.359168 682.096471 1004.645733 691.853831 1003.254475 693.22654 1002.809272 706.26727 997.61524 709.68049 998.468545 717.564289 993.923768 721.422712 991.363852 721.348512 986.893275 721.163011 986.13272 722.739771 986.13272 725.689239 991.493703 727.692651 993.923768 728.230604 993.348714 732.997983 986.058519 730.957471 988.136132 737.468561 988.544235 743.015045 989.935493 746.242765 988.581335 751.529547 977.95212 752.271552 985.483466 761.082856 977.247215 765.14533 974.891351 772.157273 964.150835 771.990322 963.464481 774.383287 961.219917 776.813352 950.2939 798.127433 945.916073 798.127433 945.841873 798.257283 945.767672 798.405684 945.693472 798.554085 940.555091 800.260696 929.258071 802.171357 929.258071 808.218694 928.794318 809.832554 929.629074 810.68586 929.703274 812.39247 918.962758 818.421257 904.920322 832.593544 890.803686 828.215717 885.05315 826.434906 884.292596 838.770732 878.801762 838.770732 875.740993 841.590349 867.931395 833.5396 867.931395 831.072434 863.516468 828.178617 863.312417 833.391199 862.588963 834.819557 860.233098 844.131715 844.762303 853.926175 835.264645 853.926175 828.864856 855.873936 797.552264 859.064556 796.365057 864.926392L796.142455 864.926392C796.142455 867.616158 794.250344 873.496545 790.818573 873.496545 787.869105 876.983966 789.687016 875.592707 790.595971 879.20998 792.432433 879.172879 793.879342 879.376931 795.25205 879.636632 796.198106 881.287592 796.012605 885.85092 795.697253 887.780132 791.375076 890.135996 789.687016 889.950495 784.585735 889.746444L784.585735 889.523843C782.471022 889.11574 778.482747 879.989084 776.590636 877.67032 769.337541 874.071598 776.627736 866.781403 777.035838 862.718928 776.664836 862.570528 776.330934 862.514877 775.70023 862.496327L775.70023 862.718928C771.192552 863.943236 767.816432 866.2991 763.253104 866.670103L763.253104 866.447501C762.473999 866.24345 752.716639 851.811462 752.364187 859.194407 754.738602 860.381614 755.387856 862.514877 752.364187 862.94153 752.364187 864.332788 735.390833 862.422127 733.925374 862.273726 728.230489 862.273726 707.21321 856.560291 709.031121 847.563486L708.80852 847.563486C707.955215 844.836619 710.570781 838.41828 710.589331 835.468811 709.995727 834.967958 709.402124 834.448555 708.80852 833.947702 706.916409 833.743651 686.585484 830.052178 686.585484 829.977978 683.283564 829.161773 684.081219 825.303349 682.152007 824.709745 681.13175 823.80079 676.957975 824.987997 676.382921 825.358999 674.713411 827.826165 667.99827 836.136616 664.380998 836.136616L664.380998 836.359217C661.116178 836.544718 658.556262 836.099515 655.922146 838.325529 655.922146 844.168815 648.056898 841.850051 645.478432 841.850051 644.532376 840.718494 642.250712 839.401436 641.712759 838.325529 640.748153 838.325529 633.049856 840.514442 633.049856 840.737044 627.447721 842.388004 623.552198 837.231072 618.599317 837.231072 617.746012 838.362629 613.961789 842.462204 613.034283 842.499305 611.346223 843.927663 603.072872 840.514442 601.477562 841.850051 599.158798 842.369454 599.622551 844.818069 599.715301 847.563486 602.163916 849.678199 602.75752 857.506347 602.590569 860.307414 604.872233 860.307414 604.742382 871.530232 604.148779 873.051342 603.425324 876.705714 600.383106 875.499957 597.489288 875.017654L597.489288 874.813603C591.460501 873.626395 588.158581 867.282256 588.158581 861.624472 588.158581 857.673298 587.713378 859.75091 585.709966 856.782892 579.514228 856.782892 579.681179 862.94153 575.711454 862.94153L575.711454 863.164131C572.799087 862.92298 572.372434 861.828523 569.701218 861.624472 568.718062 857.098244 558.163047 848.936194 558.163047 848.657942 556.474986 848.064339 552.18991 849.622548 551.039803 848.657942 549.741295 848.30549 547.886284 845.875425 547.478181 844.706768L547.25558 844.706768C546.346624 839.197384 548.424237 829.699726 546.606326 825.154948 543.786709 824.208892 541.931697 824.208892 539.928285 821.853028 536.348113 819.478613 535.068155 806.549184 531.265382 801.856005 525.051094 797.73788 521.953225 805.361977 517.037445 805.361977L517.037445 805.584578C510.211003 803.785217 513.03062 800.112295 511.713562 793.712506 509.561749 786.199709 513.364522 781.265379 515.052583 774.605888 515.200984 774.531688 515.349384 774.457487 515.497785 774.383287 515.497785 770.283712 527.406958 765.05258 530.374977 761.86196 531.376683 761.602259 531.506533 761.342557 532.155787 760.544902 533.825298 759.710147 541.412294 726.709495 537.275619 722.071966 537.275619 719.771752 528.816767 716.766634 528.816767 714.392219 528.130413 713.891366 527.425508 711.758103 527.258557 711.758103 527.258557 705.135713 524.809942 702.798398 521.044269 698.12377 518.595654 697.530166 515.738937 696.435709 513.939576 698.568972 509.8029 700.609485 514.087977 711.29435 507.706738 712.203306 503.532962 713.538914 498.802683 705.710766 494.814409 702.965349 491.048735 702.965349 483.331888 697.140614 479.046812 695.934856L479.046812 696.157458C475.225488 696.862362 469.660454 702.278995 467.044888 705.376864 455.97047 706.545521 446.231661 720.012904 435.936348 723.407575 431.744022 725.615038 403.455099 731.235723 398.001365 723.407575 395.756801 721.218661 398.390918 713.000961 398.613519 709.995842 394.847846 707.528677 392.566182 706.41567 392.603282 701.203089 391.193473 700.423984 382.382169 698.643173 382.382169 698.568972 374.906474 696.732511 369.842293 685.825044 360.159133 685.825044 360.159133 685.750844 345.300492 690.629524 343.501131 693.727393 343.501131 696.58411 344.447187 701.351489 342.833327 703.855755 338.047398 706.211619 337.936097 706.34147 332.389613 704.505009 329.050593 697.901168 332.482364 693.115239 332.612214 686.6969 329.217544 684.470886 322.07575 684.415236 318.384277 685.825044 314.618604 686.567049 311.168283 691.445729 306.827556 690.221421 302.097277 688.774512 299.518812 684.712037 296.383842 680.983465 289.835652 679.703507 284.53032 680.018859 277.945029 679.889008 272.862298 675.32568 268.373171 667.868534 264.162295 662.3035 260.545023 660.040386 256.167196 662.377701 252.605574 657.703072 252.086171 657.257869 251.566768 656.812666 251.047365 656.386014 248.468899 652.972793 246.020284 644.736542 245.723482 639.227159 242.940965 637.409248 235.057167 639.245709 233.721558 636.611593 231.996398 636.611593 228.156524 629.172997 228.156524 628.04144 224.761853 625.518625 218.695966 623.774914 216.154601 620.788346 216.0062 620.695595 215.857799 620.621395 215.709398 620.565744 215.709398 617.894528 206.527092 607.191112 206.397241 607.154012 197.010883 608.693672 186.029216 613.757853 178.831772 604.519896 176.698509 602.219682 176.160556 597.0442 176.160556 592.870425 166.607247 585.301978 163.602129 575.952721 150.394448 575.952721 147.686131 575.173616 148.353935 575.043765 146.832826 573.745257 147.222378 569.21903 146.406173 566.733314 149.726644 563.876597L149.726644 563.431394C154.605323 560.203674 151.507454 546.198338 151.507454 541.672111L151.284853 541.672111C151.284853 535.773175 150.654149 538.500041 152.39786 535.06827 157.499141 535.06827 160.838162 538.926694 165.271639 539.037995 165.809592 537.164433 166.384646 538.33309 166.384646 535.958676L166.607247 535.958676C166.607247 527.036071 163.84328 519.541825 162.377821 510.916022L162.15522 510.916022C159.947756 504.200881 167.497652 500.565059 167.497652 495.296827 166.941149 492.087657 166.366095 491.976356 165.049037 490.919 156.794237 489.26804 155.69978 479.213878 157.499141 472.888289 159.595304 465.598094 136.277811 447.289132 131.937084 451.129006 130.249024 451.017705 127.96736 448.086787 128.171411 447.827086 128.171411 443.70896 132.104036 432.430491 129.952222 428.94307 126.594652 427.27356 115.909786 418.610657 113.498271 415.753939 113.27567 415.605538 113.053069 415.457137 112.830467 415.308736 108.601041 409.094448 113.924924 403.232612 120.157762 401.692953 123.608083 394.903611 121.938573 387.817468 121.938573 380.601474L121.715972 380.601474C121.715972 372.717675 113.015969 377.856057 108.619592 377.967357 105.410422 375.648593 101.8488 374.016183 105.280571 366.540487 112.218314 365.037928 110.344752 356.412125 107.061382 356.412125 106.133876 354.538564 114.444327 349.938136 115.501684 345.430458 121.715972 345.430458 140.804039 329.050708 151.952657 332.68653 159.688055 333.966488 153.585067 343.204444 163.936031 343.668197 178.961623 331.313821 186.75267 330.497616 205.952038 330.497616L205.952038 330.275015C207.547348 329.737062 226.394263 327.8264 226.394263 326.769044 232.571451 323.578424 232.998104 320.666056 232.38595 317.085884 232.998104 316.585031 250.23116 295.753254 250.37956 295.326601 252.420073 286.403996 252.846726 277.22169 251.047365 268.076484L251.269966 268.076484C252.197472 265.238316 252.605574 261.324243 250.156959 259.506331 248.134997 256.649614 249.526255 254.4607 253.050777 254.4607 267.056113 250.231275 278.186181 258.411875 291.282561 258.411875 291.356762 258.189273 291.430962 257.966672 291.505162 257.762621 294.955484 253.755796 287.702389 242.161975 301.058471 235.558135 303.024783 232.478816 309.702824 220.254291 310.166577 218.41783L310.389178 218.41783C312.003038 216.024865 315.082357 216.87817 317.493872 217.100771 317.493872 223.129558 346.005397 227.396085 347.266804 227.210583L347.266804 226.987982C351.588981 226.72828 352.535037 225.782225 353.722244 221.942351 353.796444 221.942351 353.314141 208.196717 354.167447 206.341706L354.390048 206.341706C356.783013 196.881148 370.695598 197.808653 378.152744 195.341488L378.152744 195.137437C382.326519 191.687116 380.694109 184.582422 389.486863 184.582422 393.642088 183.283914 399.930577 185.89948 399.930577 190.74106L400.153178 190.74106C400.264479 193.449376 401.933989 197.085199 401.933989 198.643408 400.728232 202.11228 417.627385 215.19011 420.595404 214.689257 423.173869 215.375611 430.705216 219.642137 431.261719 221.497148 431.261719 226.487129 432.022274 236.782442 435.713746 239.509309 437.067905 246.22445 442.558738 256.853665 434.823341 262.58565L434.823341 263.030853C427.829948 270.228297 426.345939 275.682031 433.04253 283.027876 437.160655 285.977344 445.007353 286.886299 450.386886 288.073506 453.670256 287.888005 508.04064 307.235774 505.925927 320.610406L506.148528 320.610406C506.40823 325.507636 508.318891 333.762436 513.271772 336.211051 513.345972 336.507853 513.420173 336.786105 513.494373 337.082907L513.716974 337.082907C513.716974 337.305508 513.420173 346.524915 514.829981 346.524915L514.829981 346.970117C515.349384 347.41532 515.850237 347.841973 516.369641 348.287175L516.814843 348.95498C522.84363 348.95498 529.558772 351.589096 536.607815 351.589096 541.987348 353.184406 552.542362 357.302531 557.05004 357.302531 557.12424 357.450932 557.198441 357.599333 557.272641 357.729183 570.276271 357.729183 582.667747 357.079929 595.485876 357.079929L595.485876 357.302531C608.675006 358.934941 615.557099 372.161172 625.258808 373.57098 629.673735 368.6181 639.115743 375.500192 641.044955 378.171409L641.044955 378.39401C650.561163 378.39401 652.824277 383.513841 658.370761 387.631967 659.539418 389.171626 660.856476 389.394227 662.822788 389.375677 665.623855 381.065226 721.255646 369.323004 721.255646 361.253705L721.700849 361.253705 721.700849 361.031104C730.623454 358.508288 742.514077 365.983984 753.254593 363.887821 754.831352 359.231743 764.904064 349.826835 768.595537 346.524915 772.917713 342.666491 790.002368 330.163714 787.924755 327.8635 786.273795 321.908914 776.071232 295.920205 791.93158 295.994405L791.93158 296.217006C792.098531 296.235556 811.483399 308.367331 811.483399 303.674152 816.955683 303.674152 827.714749 290.559222 829.031807 285.661992 835.542897 284.382034 847.136718 284.140882 850.141836 278.186296 854.371262 275.014226 858.285336 263.902708 859.472544 263.902708 862.422012 260.415287 867.578943 259.26518 871.91967 258.189273L871.91967 257.966672 872.587474 257.966672C874.590886 255.499507 882.344834 249.41507 884.811999 249.41507 884.811999 248.264962 906.534182 247.85686 909.706251 246.985005 909.724802 244.221038 909.038447 241.067518 909.038447 239.082656 906.293031 230.438303 895.571065 225.114421 887.038012 220.402692 883.32799 220.291391 881.992382 224.576467 877.039501 224.576467 874.850588 227.043632 874.535236 229.362397 872.364873 232.052163 867.207941 231.829562 857.728833 227.544485 854.371262 228.527641L854.371262 228.750243C849.288531 228.750243 845.096205 232.998219 837.249507 232.701417 836.155051 230.660905 834.42989 229.455147 834.37424 226.338728 837.286608 223.036808 842.295138 218.992883 840.811129 214.021453 840.811129 203.429338 843.927548 196.639996 846.153562 185.676879 846.301963 185.602678 846.450364 185.528478 846.598765 185.454277 847.50772 184.100119 848.991729 182.67176 850.587039 182.170907 861.383205 182.170907 872.921376 183.135513 880.582573 174.47261 881.250377 173.879007 881.918181 173.303953 882.585985 172.710349 882.585985 166.922714 886.59281 158.334011 886.59281 151.61887L886.815411 151.61887C886.815411 142.900317 896.999424 128.097326 897.259125 128.097326 899.911791 121.975788 892.436096 115.409048 887.483215 112.941883 887.483215 112.533781 887.279164 110.530368 887.038012 110.530368 888.002618 104.26043 888.522022 103.481325 892.807098 100.197955 897.667228 98.992198 902.156355 97.563839 906.812434 96.024179 909.650601 90.384945 926.271503 85.469165 932.578542 85.469165 937.012019 84.504559 942.0762 88.993686 946.361276 88.993686L946.361276 89.216288C954.486226 88.826735 958.993904 88.158931 966.135697 91.1826L966.135697 91.405201C966.432499 91.479402 966.729301 91.553602 967.026103 91.627802L967.026103 91.850404 967.471305 91.850404C967.712457 92.054455 992.365558 117.41246 992.365558 122.17984L992.588159 122.17984C992.73656 122.606492 992.884961 123.051695 993.033362 123.496898 993.404364 123.775149 993.775367 124.071951 994.146369 124.368753L994.146369 124.795406C997.800741 128.097326 1001.826116 132.02995 1005.480488 134.923768L1005.480488 135.573022 1005.70309 135.573022C1005.70309 141.453408 1008.875159 144.588377 1013.030385 147.667696 1013.030385 148.242749 1013.215886 148.224199 1013.698189 148.539551 1014.106291 150.171961 1015.5161 157.777508 1017.686463 157.777508 1017.760664 157.907359 1017.834864 158.05576 1017.909065 158.20416 1022.843395 158.20416 1032.062801 157.146804 1035.921225 158.649363 1035.921225 160.819727 1045.511634 158.705014 1048.368351 159.521219 1048.368351 159.966421 1052.263875 161.524631 1052.801828 162.155335 1053.284131 166.496061 1062.188186 168.926126 1067.252367 170.076233 1067.252367 175.084764 1074.616762 189.628053 1080.589899 189.628053L1080.589899 189.628053 1080.589899 189.628053ZM999.470252 808.886499C1000.100955 802.764961 1000.88006 797.385428 1001.251063 790.874338L1001.473664 790.874338C1001.473664 783.06474 1005.480488 781.506531 1005.480488 774.82849L1005.70309 774.82849C1005.70309 767.816547 1012.770683 755.016968 1018.576869 749.989888 1019.448724 748.78413 1027.313972 747.411422 1029.243184 748.005025L1029.243184 748.227627C1043.452571 750.231039 1034.363015 758.448739 1034.363015 764.496076L1034.140414 764.496076C1034.140414 773.140429 1037.627835 785.643206 1035.253421 793.508454 1035.253421 796.940225 1031.9144 799.759843 1031.9144 802.282658 1029.966639 805.195026 1023.251497 806.048331 1023.251497 810.871361L1023.028896 810.871361C1019.838276 819.237462 1023.826551 824.691195 1016.592007 833.057297L1016.369405 833.057297 1016.369405 832.834695 1016.146804 832.834695C1016.146804 830.27478 1010.60032 827.455162 1010.136567 823.81934L1009.913966 823.81934C1004.831234 817.790553 1001.566414 816.139593 999.470252 808.886499L999.470252 808.886499 999.470252 808.886499ZM763.475705 899.207002C771.953107 898.390797 790.44757 890.63685 799.704077 894.365422 802.078492 894.829175 806.400668 896.665637 807.031372 899.207002 809.164635 902.15647 803.4141 909.057112 798.368469 924.027054 798.220068 924.101255 798.071667 924.175455 797.923266 924.249656L797.923266 924.694858C793.879342 932.708507 774.717074 940.147103 774.142021 938.310642L773.251615 938.310642 773.251615 938.533243C769.819844 939.553499 755.925809 934.489318 755.925809 931.280149 755.777408 931.205948 755.629007 931.131748 755.480606 931.076097 749.841372 908.797411 762.548199 914.918948 763.475705 899.207002L763.475705 899.207002 763.475705 899.207002Z" p-id="3268" fill="#2c2c2c"></path></svg>