<?xml version="1.0" standalone="no"?><!DOCTYPE svg PUBLIC "-//W3C//DTD SVG 1.1//EN" "http://www.w3.org/Graphics/SVG/1.1/DTD/svg11.dtd"><svg t="1508901400573" class="icon" style="" viewBox="0 0 1025 1024" version="1.1" xmlns="http://www.w3.org/2000/svg" p-id="9399" xmlns:xlink="http://www.w3.org/1999/xlink" width="200.1953125" height="200"><defs><style type="text/css"></style></defs><path d="M466.15552 929.48992c-93.71648-11.91424-177.40288-52.70016-243.57376-118.59968-68.83328-68.608-111.45216-159.55456-120.25856-256.59392l-1.05472-11.7504-49.87904 2.88256c-27.48928 1.60256-50.60096 2.70848-51.37408 2.49344-0.77312-0.22528 35.47136-41.84576 80.64-92.50304 45.056-50.65216 82.63168-91.88352 83.34848-91.66336 1.77664 0.60928 184.832 163.37408 184.33024 163.87584-0.49664 0.50176-87.95136 5.65248-96.04096 5.65248l-6.48704 0 1.16736 12.25216c6.03648 61.45536 33.08544 117.87776 78.14144 162.76992 52.59264 52.31616 116.6592 78.976 189.76256 78.976 72.26368 0 137.05728-26.496 189.53728-77.5936 15.63648-15.18592 18.89792-17.67936 21.22752-16.01536 1.55136 1.05472 26.27072 21.61664 55.09632 45.55776 43.93984 36.6848 52.03456 44.11392 50.75968 46.60736-0.89088 1.55648-10.14272 11.47392-20.50048 22.00576-34.2016 34.46784-67.23072 58.40896-110.6176 80.13312-39.79776 19.94752-80.58368 33.08544-123.648 39.84384C553.27744 931.53792 489.6512 932.48512 466.15552 929.48992L466.15552 929.48992zM766.6432 565.7088l-92.17024-82.0224 32.70656-1.94048c17.95072-1.11104 41.28768-2.49344 51.75808-3.16416l19.01056-1.10592-1.11104-11.19744c-6.53312-64.34304-38.4-128.18944-85.0688-170.4704-35.69664-32.47616-79.58528-55.58784-123.47392-65.11616-56.19712-12.19072-112.89088-7.26016-164.10112 14.29504-31.81056 13.35296-59.07968 31.5904-84.6848 56.64256-10.19904 9.92256-18.8416 18.06336-19.17952 18.06336-0.38912 0-25.216-20.5056-55.1424-45.60896l-54.4768-45.55776 3.21536-4.49024c1.77152-2.43712 10.30656-11.63776 18.95424-20.39296 64.01024-65.23392 146.5856-106.96192 238.53056-120.6528 27.20768-3.98848 87.84384-3.98848 114.3808 0.16896 121.82528 18.67264 223.40096 83.68128 290.96448 186.15296 32.256 49.0496 56.02304 115.49696 63.1808 176.73728 1.4336 12.35968 2.77504 22.60992 2.93376 22.8352 0.22528 0.16384 23.1168-0.9984 50.87232-2.71872 27.71456-1.65888 50.65728-2.82112 50.88256-2.60096 0.82944 0.77824-162.98496 184.2176-164.43392 184.2176-0.82432 0-42.89024-36.91008-93.54752-82.02752L766.6432 565.7088z" p-id="9400"></path></svg>