<?xml version="1.0" standalone="no"?><!DOCTYPE svg PUBLIC "-//W3C//DTD SVG 1.1//EN" "http://www.w3.org/Graphics/SVG/1.1/DTD/svg11.dtd"><svg t="1508900388564" class="icon" style="" viewBox="0 0 1024 1024" version="1.1" xmlns="http://www.w3.org/2000/svg" p-id="2138" xmlns:xlink="http://www.w3.org/1999/xlink" width="200" height="200"><defs><style type="text/css"></style></defs><path d="M729.86624 620.2368l60.90752 0 0 57.9584-60.90752 0L729.86624 620.2368 729.86624 620.2368 729.86624 620.2368zM927.78496 398.99136l-264.11008-63.24224c-6.51264-1.55648-12.98432-1.72032-19.21024-0.9216L644.46464 112.70144c14.17216-11.22304 22.20032-29.14304 19.21024-47.98464-4.5056-28.20096-31.6416-36.80256-60.45696-32.41984L100.72064 108.62592C71.80288 113.07008 52.03968 128.7168 56.50432 156.91776c2.12992 13.27104 9.29792 24.4736 19.23072 32.256l0 771.29728c0 17.79712 14.76608 32.27648 33.0752 32.27648l800.44032 0c18.24768 0 33.0752-14.47936 33.0752-32.27648L942.32576 477.26592c11.6736-6.84032 20.7872-17.94048 24.28928-31.88736C973.5168 417.62816 956.17024 405.77024 927.78496 398.99136L927.78496 398.99136 927.78496 398.99136zM589.312 387.6864l0 549.86752-181.94432 0 0-171.08992-93.12256 0 0 171.08992L133.67296 937.55392 133.67296 186.88l455.63904-66.29376L589.312 387.6864 589.312 387.6864 589.312 387.6864zM790.75328 937.53344l0-92.03712-60.90752 0 0 92.03712-85.38112 0 0-517.5296 245.37088 50.8928 0 466.6368L790.75328 937.53344 790.75328 937.53344 790.75328 937.53344zM729.86624 515.4816l60.90752 0L790.77376 573.44l-60.90752 0L729.86624 515.4816 729.86624 515.4816 729.86624 515.4816zM729.86624 724.992l60.90752 0 0 57.91744-60.90752 0L729.86624 724.992 729.86624 724.992 729.86624 724.992zM314.24512 222.53568l93.12256 0 0 97.792-93.12256 0L314.24512 222.53568 314.24512 222.53568 314.24512 222.53568zM314.24512 399.27808l93.12256 0 0 97.83296-93.12256 0L314.24512 399.27808 314.24512 399.27808 314.24512 399.27808zM314.24512 576.06144l93.12256 0 0 97.77152-93.12256 0L314.24512 576.06144 314.24512 576.06144 314.24512 576.06144zM314.24512 576.06144" p-id="2139"></path></svg>