<?xml version="1.0" standalone="no"?><!DOCTYPE svg PUBLIC "-//W3C//DTD SVG 1.1//EN" "http://www.w3.org/Graphics/SVG/1.1/DTD/svg11.dtd"><svg t="1510324003000" class="icon" style="" viewBox="0 0 1024 1024" version="1.1" xmlns="http://www.w3.org/2000/svg" p-id="4162" xmlns:xlink="http://www.w3.org/1999/xlink" width="200" height="200"><defs><style type="text/css"></style></defs><path d="M512 31.789253C238.894545 31.789253 31.789253 238.880323 31.789253 511.998707c0 273.117091 216.37301 480.213333 489.490101 480.213333 250.168889 0 470.931394-207.096242 470.931393-480.213333 0-273.118384-207.104-480.209455-480.210747-480.209454M83.060364 570.605899c-2.539313-18.782384-3.766303-37.999192-3.766303-57.479758 0-238.979879 193.736404-432.705939 432.718868-432.705939 28.984889 0 57.31297 2.839273 84.686869 8.277333-8.398869 4.70497-15.39103 9.278061-18.241939 12.802586-14.823434 18.169535-14.16404 41.225051 0.431838 65.904485 25.161697 42.65503 24.666505 97.982061 8.724687 114.730667-10.51798 11.046788-58.163717 20.517495-65.096404 21.31006-52.368808 5.992727-75.095919 14.330828-91.424323 46.903596-7.978667 15.954747-4.646788 32.03103 5.497535 52.992 3.211636 6.557737 23.549414 41.717657 26.520566 46.903596 16.376242 28.506505 25.293576 48.792566 28.494868 67.683556 3.886545 23.007677 1.780364 43.666101-11.927272 53.606141-13.728323 9.94004-45.326222 10.998949-51.61891 8.832-5.139394-1.781657-12.550465-6.185374-26.146909-15.811232-5.944889-4.212364-46.987636-51.439192-79.75305-51.439192s-80.365899 43.966061-82.412606 45.879596c-19.721051 18.986667-32.571475 27.447596-48.142222 30.178263-36.662303 6.414222-62.75103 1.179152-105.707314-17.317495-0.56501-0.240485-1.551515-0.695596-2.837979-1.250263m428.939636 375.240404c-11.491556 0-22.861576-0.444768-34.124283-1.287758-28.865939-39.129212-22.994747-73.94004 12.297051-103.010262 43.390707-35.727515 122.33697-53.894465 204.422464-44.065616 11.562667-0.249535 45.315879-0.757657 50.141091-0.866263 78.886788-1.854061 119.555879-16.305131 124.992647-70.292687 6.800808-38.684444 21.381172-56.73503 41.297454-61.813656a51.262061 51.262061 0 0 1 6.992162-1.250263c-61.076687 164.944162-219.823838 282.586505-406.018586 282.586505m386.863838-329.371151c-40.310949 10.203798-67.93697 44.507798-78.14206 103.047757-1.105455 10.949818-27.447596 25.293576-61.499475 29.914505-24.848808 3.406869-59.522586-1.409293-62.990222-1.287757-90.449455-11.18901-182.848646 10.131394-237.560243 55.134383-44.206545 36.350707-59.032566 83.905939-41.477171 132.106344C261.227313 900.543354 137.037576 781.480081 94.754909 628.411475c36.782545 12.922828 66.889697 16.146101 105.404768 9.398303 27.760485-4.884687 47.591434-18.001455 73.870222-43.221334 2.164364-2.093253 38.830545-32.381414 46.121374-30.336 0 0 46.79499 36.026182 53.099313 40.539798 17.242505 12.247919 27.81996 18.540606 38.697374 22.319839 12.670707 4.319677 62.317899 2.839273 88.272161-10.383515 25.965899-13.189172 53.845333-59.416566 40.124768-107.067475-7.288242-25.521131-15.217778-50.813414-34.313051-84.061091-25.65301-44.652606-30.23903-54.026343-30.672161-53.110949 5.871192-11.791515 16.760242-15.776323 52.79806-19.903354 7.050343-0.793859 75.045495-15.137616 95.263031-36.350707 32.886949-34.545778 12.744404-153.861172-6.184081-184.268283-9.156525-14.716121 13.838222-21.622949 35.966707-27.989333 169.636202 58.53996 291.54004 219.645414 291.54004 409.160404 0 34.569051-4.080485 68.247273-11.744969 100.473535-11.333818-0.84299-22.705131 0.023273-34.134627 2.863839m0 0z" p-id="4163"></path></svg>