<?xml version="1.0" standalone="no"?><!DOCTYPE svg PUBLIC "-//W3C//DTD SVG 1.1//EN" "http://www.w3.org/Graphics/SVG/1.1/DTD/svg11.dtd"><svg t="1510323840584" class="icon" style="" viewBox="0 0 1024 1024" version="1.1" xmlns="http://www.w3.org/2000/svg" p-id="1899" xmlns:xlink="http://www.w3.org/1999/xlink" width="200" height="200"><defs><style type="text/css"></style></defs><path d="M506.172 60.834c-185.545 0-336.483 150.953-336.483 336.508 0 256.143 309.22 433.223 322.384 440.631a28.65 28.65 0 0 0 14.1 3.708c4.848 0 9.722-1.238 14.093-3.692 13.164-7.424 322.41-184.504 322.41-440.647 0-185.55-150.949-336.508-336.504-336.508z m0 480.285c-82.755 0-150.073-67.323-150.073-150.063 0-82.75 67.318-150.067 150.073-150.067 82.735 0 150.043 67.318 150.043 150.067-0.001 82.74-67.308 150.063-150.043 150.063z" fill="" p-id="1900"></path><path d="M505.538 654.3c-224.412 0-406.334 67.742-406.334 151.305S281.126 956.91 505.538 956.91 911.87 889.168 911.87 805.605c0-83.564-181.921-151.305-406.333-151.305z m0 241.542c-185.935 0-336.665-40.401-336.665-90.238 0-49.837 150.73-90.238 336.665-90.238s336.664 40.4 336.664 90.238-150.73 90.238-336.664 90.238z" fill="" p-id="1901"></path></svg>