<?xml version="1.0" standalone="no"?><!DOCTYPE svg PUBLIC "-//W3C//DTD SVG 1.1//EN" "http://www.w3.org/Graphics/SVG/1.1/DTD/svg11.dtd"><svg t="1508900536474" class="icon" style="" viewBox="0 0 1315 1024" version="1.1" xmlns="http://www.w3.org/2000/svg" p-id="4249" xmlns:xlink="http://www.w3.org/1999/xlink" width="256.8359375" height="200"><defs><style type="text/css"></style></defs><path d="" p-id="4250"></path><path d="M1007.515 353.945c-7.349-10.969-19.731-17.539-32.968-17.539h-39.621c-21.907 0-39.621 17.622-39.621 39.398v236.293c0 21.779 17.714 39.396 39.621 39.396h158.48c21.905 0 39.619-17.617 39.619-39.396v-59.080c0-7.764-2.315-15.382-6.65-21.843l-118.861-177.229zM1093.406 612.096h-158.48v-236.309h39.621l118.861 177.23v59.078zM1271.538 507.172l-158.48-236.306c-22.128-32.955-59.114-52.605-98.894-52.605h-158.48v-78.781c0-65.161-53.318-118.147-118.862-118.147h-594.302c-65.558 0-118.861 52.986-118.861 118.147v433.234c0 65.161 53.303 118.164 118.861 118.164h0.016v118.146c0 65.16 53.318 118.163 118.861 118.163h45.223c17.683 67.764 79.209 118.146 152.862 118.146 73.605 0 135.115-50.381 152.846-118.146h209.307c17.73 67.764 79.241 118.146 152.91 118.146 73.589 0 135.115-50.381 152.829-118.146h45.271c65.541 0 118.861-53.003 118.861-118.163v-236.31c0-23.382-6.889-46.079-19.968-65.542zM126.266 628.351c-21.857 0-39.619-33.873-39.619-55.638v-433.232c0-21.763 17.762-55.638 39.619-55.638h626.814c21.905 0 39.619 33.875 39.619 55.638v433.234c0 21.763-17.714 55.638-39.619 55.638h-626.814zM462.53 980.329l-8.112-0.062c-49.413 0-89.399-40.047-89.399-89.43 0-49.399 39.986-89.447 89.399-89.447 49.319 0 89.4 40.047 89.4 89.447 0.002 49.382-37.571 89.492-81.288 89.492zM982.673 980.329l-8.126-0.062c-49.414 0-89.385-40.047-89.385-89.43 0-49.399 39.969-89.447 89.385-89.447 49.333 0 89.399 40.047 89.399 89.447-0.002 49.382-37.557 89.492-81.272 89.492zM1172.647 848.42h-45.271c-17.716-67.779-79.241-118.16-152.829-118.16-73.669 0-135.181 50.381-152.91 118.16h-209.308c-17.73-67.779-79.241-118.16-152.846-118.16-73.655 0-135.179 50.381-152.862 118.16h-45.223c-21.905 0-39.621-17.617-39.621-39.396v-118.146h515.046c65.542 0 118.862-53.003 118.862-118.164v-275.691h158.48c13.237 0 25.62 6.572 32.969 17.539l158.481 236.31c4.333 6.461 20.873 31.59 20.873 39.351v211.308l2.032 7.493c0 21.779-33.97 39.396-55.874 39.396z" p-id="4251"></path></svg>