<?xml version="1.0" standalone="no"?><!DOCTYPE svg PUBLIC "-//W3C//DTD SVG 1.1//EN" "http://www.w3.org/Graphics/SVG/1.1/DTD/svg11.dtd"><svg t="1510299149590" class="icon" style="" viewBox="0 0 1024 1024" version="1.1" xmlns="http://www.w3.org/2000/svg" p-id="2609" xmlns:xlink="http://www.w3.org/1999/xlink" width="200" height="200"><defs><style type="text/css"></style></defs><path d="M893.44 512l-665.6 0c-48.64 0-87.04-38.4-87.04-81.92L140.8 409.6c0-15.36 10.24-25.6 25.6-25.6s25.6 10.24 25.6 25.6l0 20.48c0 17.92 15.36 30.72 35.84 30.72l665.6 0c20.48 0 35.84-15.36 35.84-30.72L929.28 112.64c-2.56-15.36-17.92-30.72-35.84-30.72l-665.6 0c-20.48 0-35.84 15.36-35.84 30.72l0 33.28c0 15.36-10.24 25.6-25.6 25.6s-25.6-10.24-25.6-25.6L140.8 112.64c0-43.52 38.4-81.92 87.04-81.92l665.6 0c48.64 0 87.04 35.84 87.04 81.92l0 314.88C977.92 476.16 939.52 512 893.44 512zM166.4 337.92c-15.36 0-25.6-10.24-25.6-25.6L140.8 256c0-15.36 10.24-25.6 25.6-25.6s25.6 10.24 25.6 25.6l0 56.32C192 327.68 181.76 337.92 166.4 337.92z" p-id="2610"></path><path d="M243.2 184.32 104.96 184.32c-15.36 0-25.6-10.24-25.6-25.6s10.24-25.6 25.6-25.6l135.68 0c15.36 0 25.6 10.24 25.6 25.6S256 184.32 243.2 184.32z" p-id="2611"></path><path d="M227.84 337.92 76.8 337.92c-15.36 0-25.6-10.24-25.6-25.6s10.24-25.6 25.6-25.6l151.04 0c15.36 0 25.6 10.24 25.6 25.6S240.64 337.92 227.84 337.92z" p-id="2612"></path><path d="M66.56 235.52 30.72 235.52c-15.36 0-25.6-10.24-25.6-25.6s10.24-25.6 25.6-25.6l35.84 0c15.36 0 25.6 10.24 25.6 25.6S81.92 235.52 66.56 235.52z" p-id="2613"></path><path d="M560.64 250.88c-7.68 0-12.8-2.56-17.92-7.68l-71.68-71.68c-10.24-10.24-10.24-25.6 0-35.84s25.6-10.24 35.84 0l53.76 53.76 56.32-56.32c10.24-10.24 25.6-10.24 35.84 0s10.24 25.6 0 35.84l-74.24 76.8C576 248.32 568.32 250.88 560.64 250.88z" p-id="2614"></path><path d="M647.68 261.12l-168.96 0c-15.36 0-25.6-10.24-25.6-25.6s10.24-25.6 25.6-25.6l168.96 0c15.36 0 25.6 10.24 25.6 25.6S663.04 261.12 647.68 261.12z" p-id="2615"></path><path d="M647.68 337.92l-168.96 0c-15.36 0-25.6-10.24-25.6-25.6s10.24-25.6 25.6-25.6l168.96 0c15.36 0 25.6 10.24 25.6 25.6S663.04 337.92 647.68 337.92z" p-id="2616"></path><path d="M563.2 412.16c-15.36 0-25.6-10.24-25.6-25.6l0-151.04c0-15.36 10.24-25.6 25.6-25.6s25.6 10.24 25.6 25.6l0 151.04C588.8 401.92 578.56 412.16 563.2 412.16z" p-id="2617"></path><path d="M581.12 990.72c-23.04 0-40.96-5.12-40.96-5.12l-409.6-107.52c-10.24-2.56-17.92-12.8-17.92-25.6l0-215.04c0-15.36 10.24-25.6 25.6-25.6l465.92 0c92.16 0 102.4 51.2 102.4 71.68 0 51.2-38.4 76.8-64 84.48-2.56 0-5.12 0-5.12 0l-166.4 15.36c-15.36 0-25.6-10.24-28.16-23.04s10.24-25.6 23.04-28.16l163.84-10.24c7.68-2.56 25.6-12.8 25.6-35.84 0-12.8-17.92-20.48-51.2-20.48L161.28 665.6l0 168.96 389.12 102.4c0 0 51.2 12.8 84.48-12.8 46.08-30.72 294.4-179.2 304.64-184.32l0 0c0 0 28.16-20.48 17.92-46.08-2.56-10.24-7.68-10.24-7.68-10.24-12.8-5.12-40.96 5.12-66.56 12.8-15.36 5.12-33.28 12.8-53.76 20.48-12.8 5.12-28.16-2.56-33.28-15.36-5.12-12.8 2.56-28.16 15.36-33.28 17.92-7.68 38.4-15.36 53.76-20.48 35.84-12.8 74.24-25.6 104.96-10.24 15.36 7.68 28.16 20.48 33.28 40.96 17.92 51.2-17.92 89.6-40.96 104.96-2.56 2.56-258.56 153.6-302.08 184.32C637.44 988.16 604.16 990.72 581.12 990.72z" p-id="2618"></path></svg>