<?xml version="1.0" standalone="no"?><!DOCTYPE svg PUBLIC "-//W3C//DTD SVG 1.1//EN" "http://www.w3.org/Graphics/SVG/1.1/DTD/svg11.dtd"><svg t="1510300918977" class="icon" style="" viewBox="0 0 1063 1024" version="1.1" xmlns="http://www.w3.org/2000/svg" p-id="9418" xmlns:xlink="http://www.w3.org/1999/xlink" width="207.6171875" height="200"><defs><style type="text/css"></style></defs><path d="M370.822 239.058c0-98.24-82.965-177.952-185.439-177.952C83.041 61.176 0 140.819 0 239.058 0 286.876 19.72 330.3 51.7 362.34c-8.722 35.078-13.261 71.574-13.261 109.205 0 169.18 92.832 317.64 232.252 400.817l37.092-146.128C232.04 665.274 183.82 573.887 183.82 471.611c0-18.598 1.563-36.848 4.68-54.53 101.056-1.699 182.322-80.698 182.322-178.023m159.074-99.37c64.11 0 124.033 16.691 175.591 45.902-8.158 20.015-12.481 41.729-12.481 64.433 0 98.31 82.97 177.953 185.308 177.953s185.448-79.713 185.448-177.953c0-98.24-83.11-177.952-185.448-177.952-23.968 0-46.95 4.384-67.87 12.308C730.797 31.19 634.284 0 529.896 0 459.26 0 392.105 14.354 331.398 40.1l84.744 117.903c35.604-11.88 73.893-18.316 113.754-18.316m345.508 346.78c-5.535 120.945-78.652 225.127-183.957 278.67-30.637-57.64-93.118-97.108-165.166-97.108-102.478 0-185.448 79.704-185.448 177.948S423.803 1024 526.28 1024c76.798 0 142.894-44.912 170.837-108.848 189.063-65.706 324.09-239.551 324.09-443.541 0-10.468-0.423-20.79-1.137-31.046l-144.667 45.902zM370.822 239.058c0-98.24-82.965-177.952-185.439-177.952C83.041 61.176 0 140.819 0 239.058 0 286.876 19.72 330.3 51.7 362.34c-8.722 35.078-13.261 71.574-13.261 109.205 0 169.18 92.832 317.64 232.252 400.817l37.092-146.128C232.04 665.274 183.82 573.887 183.82 471.611c0-18.598 1.563-36.848 4.68-54.53 101.056-1.699 182.322-80.698 182.322-178.023m159.074-99.37c64.11 0 124.033 16.691 175.591 45.902-8.158 20.015-12.481 41.729-12.481 64.433 0 98.31 82.97 177.953 185.308 177.953s185.448-79.713 185.448-177.953c0-98.24-83.11-177.952-185.448-177.952-23.968 0-46.95 4.384-67.87 12.308C730.797 31.19 634.284 0 529.896 0 459.26 0 392.105 14.354 331.398 40.1l84.744 117.903c35.604-11.88 73.893-18.316 113.754-18.316m345.508 346.78c-5.535 120.945-78.652 225.127-183.957 278.67-30.637-57.64-93.118-97.108-165.166-97.108-102.478 0-185.448 79.704-185.448 177.948S423.803 1024 526.28 1024c76.798 0 142.894-44.912 170.837-108.848 189.063-65.706 324.09-239.551 324.09-443.541 0-10.468-0.423-20.79-1.137-31.046l-144.667 45.902zM370.822 239.058c0-98.24-82.965-177.952-185.439-177.952C83.041 61.176 0 140.819 0 239.058 0 286.876 19.72 330.3 51.7 362.34c-8.722 35.078-13.261 71.574-13.261 109.205 0 169.18 92.832 317.64 232.252 400.817l37.092-146.128C232.04 665.274 183.82 573.887 183.82 471.611c0-18.598 1.563-36.848 4.68-54.53 101.056-1.699 182.322-80.698 182.322-178.023m159.074-99.37c64.11 0 124.033 16.691 175.591 45.902-8.158 20.015-12.481 41.729-12.481 64.433 0 98.31 82.97 177.953 185.308 177.953s185.448-79.713 185.448-177.953c0-98.24-83.11-177.952-185.448-177.952-23.968 0-46.95 4.384-67.87 12.308C730.797 31.19 634.284 0 529.896 0 459.26 0 392.105 14.354 331.398 40.1l84.744 117.903c35.604-11.88 73.893-18.316 113.754-18.316m345.508 346.78c-5.535 120.945-78.652 225.127-183.957 278.67-30.637-57.64-93.118-97.108-165.166-97.108-102.478 0-185.448 79.704-185.448 177.948S423.803 1024 526.28 1024c76.798 0 142.894-44.912 170.837-108.848 189.063-65.706 324.09-239.551 324.09-443.541 0-10.468-0.423-20.79-1.137-31.046l-144.667 45.902z" p-id="9419"></path></svg>