<?xml version="1.0" standalone="no"?><!DOCTYPE svg PUBLIC "-//W3C//DTD SVG 1.1//EN" "http://www.w3.org/Graphics/SVG/1.1/DTD/svg11.dtd"><svg t="1508900593262" class="icon" style="" viewBox="0 0 1024 1024" version="1.1" xmlns="http://www.w3.org/2000/svg" p-id="4940" xmlns:xlink="http://www.w3.org/1999/xlink" width="200" height="200"><defs><style type="text/css"></style></defs><path d="M691.2 51.2 179.2 51.2C151.04 51.2 128 74.24 128 102.4l0 819.2c0 28.16 23.04 51.2 51.2 51.2l665.6 0c28.16 0 51.2-23.04 51.2-51.2L896 256 691.2 51.2zM716.8 153.6l76.8 76.8-76.8 0L716.8 153.6zM844.8 896c0 15.36-10.24 25.6-25.6 25.6L204.8 921.6c-15.36 0-25.6-10.24-25.6-25.6L179.2 128c0-15.36 10.24-25.6 25.6-25.6l460.8 0 0 179.2 179.2 0L844.8 896z" p-id="4941"></path><path d="M716.8 768 307.2 768c-15.36 0-25.6-10.24-25.6-25.6s10.24-25.6 25.6-25.6l409.6 0c15.36 0 25.6 10.24 25.6 25.6S732.16 768 716.8 768z" p-id="4942"></path><path d="M716.8 614.4 307.2 614.4c-15.36 0-25.6-10.24-25.6-25.6s10.24-25.6 25.6-25.6l409.6 0c15.36 0 25.6 10.24 25.6 25.6S732.16 614.4 716.8 614.4z" p-id="4943"></path><path d="M716.8 460.8 307.2 460.8c-15.36 0-25.6-10.24-25.6-25.6s10.24-25.6 25.6-25.6l409.6 0c15.36 0 25.6 10.24 25.6 25.6S732.16 460.8 716.8 460.8z" p-id="4944"></path></svg>