<?xml version="1.0" standalone="no"?><!DOCTYPE svg PUBLIC "-//W3C//DTD SVG 1.1//EN" "http://www.w3.org/Graphics/SVG/1.1/DTD/svg11.dtd"><svg t="1510299687049" class="icon" style="" viewBox="0 0 1024 1024" version="1.1" xmlns="http://www.w3.org/2000/svg" p-id="3013" xmlns:xlink="http://www.w3.org/1999/xlink" width="200" height="200"><defs><style type="text/css"></style></defs><path d="M808.4 734.9h-21.3V499.5H680.8v127.3c0 11.7-9.5 21.2-21.3 21.2-11.7 0-21.3-9.5-21.3-21.2V457.1h191.4v-110 345.4h129.5L931.3 727 761.8 937.2 746 956.8l-16.7-18.9-186.8-211.3c-7.8-8.8-6.9-22.2 1.9-29.9 8.8-7.7 22.3-6.9 30 1.9L744.5 891l125.9-156.1" p-id="3014" fill="#2c2c2c"></path><path d="M182.1 893.2c-41.5 0-75.5-35.1-75.5-78.6V108.2h604.9c41.6 0 75.7 35.2 75.7 78.8v270h42.5V187c0-66.7-52.8-121.3-118.2-121.3H64v748.8c0 66.7 52.7 121.1 118.1 121.1h475.2v-42.4H182.1z m0 0" p-id="3015" fill="#2c2c2c"></path><path d="M700 405.3c11.7 0 21.3-9.5 21.3-21.2s-9.5-21.2-21.3-21.2H213.7c-11.7 0-21.3 9.5-21.3 21.2s9.5 21.2 21.3 21.2H700z m0 0M702.4 278c11.7 0 21.3-9.5 21.3-21.2s-9.5-21.2-21.3-21.2H216.1c-11.7 0-21.3 9.5-21.3 21.2s9.5 21.2 21.3 21.2h486.3z m0 0" p-id="3016" fill="#2c2c2c"></path></svg>