<?xml version="1.0" standalone="no"?><!DOCTYPE svg PUBLIC "-//W3C//DTD SVG 1.1//EN" "http://www.w3.org/Graphics/SVG/1.1/DTD/svg11.dtd"><svg t="1511765144924" class="icon" style="" viewBox="0 0 1063 1024" version="1.1" xmlns="http://www.w3.org/2000/svg" p-id="2414" xmlns:xlink="http://www.w3.org/1999/xlink" width="207.6171875" height="200"><defs><style type="text/css"></style></defs><path d="M370.822313 239.058349C370.822313 140.8186 287.856688 61.105884 185.382993 61.105884 83.040728 61.176294 0 140.8186 0 239.058349c0 47.817303 19.719298 91.241065 51.699202 123.28199-8.721365 35.077913-13.260418 71.5734-13.260418 109.204824 0 169.179466 92.832315 317.639822 232.252116 400.816675l37.09162-146.127461c-75.741631-60.960372-123.962613-152.346949-123.962614-254.623498 0-18.597443 1.563086-36.847534 4.679872-54.529656C289.555899 415.382012 370.822313 336.382777 370.822313 239.058349m159.073384-99.370992c64.110015 0 124.033023 16.691698 175.591406 45.90217-8.158091 20.015017-12.481222 41.729245-12.481222 64.433897 0 98.310158 82.970319 177.952465 185.30789 177.952464s185.448708-79.712715 185.448708-177.952464c0-98.239749-83.111138-177.952465-185.448708-177.952465-23.967326 0-46.948921 4.384152-67.869872 12.307546C730.796899 31.19132 634.284525 0 529.895697 0 459.261087 0 392.104697 14.354109 331.397799 40.100443l84.744633 117.90272c35.603636-11.880396 73.892213-18.315806 113.753265-18.315806m345.507823 346.779884c-5.534171 120.944401-78.651882 225.126695-183.956031 278.670621-30.637433-57.641747-93.118646-97.108506-165.166136-97.108506-102.478389 0-185.448708 79.703327-185.448708 177.94777s82.970319 178.022874 185.448708 178.022874c76.79777 0 142.893327-44.911745 170.836431-108.848084 189.063052-65.705959 324.089313-239.551214 324.089314-443.541037 0-10.467516-0.422456-20.789519-1.135937-31.045808l-144.667641 45.90217zM370.822313 239.058349C370.822313 140.8186 287.856688 61.105884 185.382993 61.105884 83.040728 61.176294 0 140.8186 0 239.058349c0 47.817303 19.719298 91.241065 51.699202 123.28199-8.721365 35.077913-13.260418 71.5734-13.260418 109.204824 0 169.179466 92.832315 317.639822 232.252116 400.816675l37.09162-146.127461c-75.741631-60.960372-123.962613-152.346949-123.962614-254.623498 0-18.597443 1.563086-36.847534 4.679872-54.529656C289.555899 415.382012 370.822313 336.382777 370.822313 239.058349m159.073384-99.370992c64.110015 0 124.033023 16.691698 175.591406 45.90217-8.158091 20.015017-12.481222 41.729245-12.481222 64.433897 0 98.310158 82.970319 177.952465 185.30789 177.952464s185.448708-79.712715 185.448708-177.952464c0-98.239749-83.111138-177.952465-185.448708-177.952465-23.967326 0-46.948921 4.384152-67.869872 12.307546C730.796899 31.19132 634.284525 0 529.895697 0 459.261087 0 392.104697 14.354109 331.397799 40.100443l84.744633 117.90272c35.603636-11.880396 73.892213-18.315806 113.753265-18.315806m345.507823 346.779884c-5.534171 120.944401-78.651882 225.126695-183.956031 278.670621-30.637433-57.641747-93.118646-97.108506-165.166136-97.108506-102.478389 0-185.448708 79.703327-185.448708 177.94777s82.970319 178.022874 185.448708 178.022874c76.79777 0 142.893327-44.911745 170.836431-108.848084 189.063052-65.705959 324.089313-239.551214 324.089314-443.541037 0-10.467516-0.422456-20.789519-1.135937-31.045808l-144.667641 45.90217zM370.822313 239.058349C370.822313 140.8186 287.856688 61.105884 185.382993 61.105884 83.040728 61.176294 0 140.8186 0 239.058349c0 47.817303 19.719298 91.241065 51.699202 123.28199-8.721365 35.077913-13.260418 71.5734-13.260418 109.204824 0 169.179466 92.832315 317.639822 232.252116 400.816675l37.09162-146.127461c-75.741631-60.960372-123.962613-152.346949-123.962614-254.623498 0-18.597443 1.563086-36.847534 4.679872-54.529656C289.555899 415.382012 370.822313 336.382777 370.822313 239.058349m159.073384-99.370992c64.110015 0 124.033023 16.691698 175.591406 45.90217-8.158091 20.015017-12.481222 41.729245-12.481222 64.433897 0 98.310158 82.970319 177.952465 185.30789 177.952464s185.448708-79.712715 185.448708-177.952464c0-98.239749-83.111138-177.952465-185.448708-177.952465-23.967326 0-46.948921 4.384152-67.869872 12.307546C730.796899 31.19132 634.284525 0 529.895697 0 459.261087 0 392.104697 14.354109 331.397799 40.100443l84.744633 117.90272c35.603636-11.880396 73.892213-18.315806 113.753265-18.315806m345.507823 346.779884c-5.534171 120.944401-78.651882 225.126695-183.956031 278.670621-30.637433-57.641747-93.118646-97.108506-165.166136-97.108506-102.478389 0-185.448708 79.703327-185.448708 177.94777s82.970319 178.022874 185.448708 178.022874c76.79777 0 142.893327-44.911745 170.836431-108.848084 189.063052-65.705959 324.089313-239.551214 324.089314-443.541037 0-10.467516-0.422456-20.789519-1.135937-31.045808l-144.667641 45.90217z" p-id="2415"></path></svg>