<?xml version="1.0" standalone="no"?><!DOCTYPE svg PUBLIC "-//W3C//DTD SVG 1.1//EN" "http://www.w3.org/Graphics/SVG/1.1/DTD/svg11.dtd"><svg t="1508900618592" class="icon" style="" viewBox="0 0 1033 1024" version="1.1" xmlns="http://www.w3.org/2000/svg" p-id="5641" xmlns:xlink="http://www.w3.org/1999/xlink" width="201.7578125" height="200"><defs><style type="text/css"></style></defs><path d="M485.381459 353.410919H153.220891a22.372515 22.372515 0 1 1 0-44.745029h332.160568a22.372515 22.372515 0 1 1 0 44.745029zM576.610366 540.579801H156.273986a22.372515 22.372515 0 0 1 0-44.74503h420.33638a22.372515 22.372515 0 1 1 0 44.74503z" p-id="5642"></path><path d="M651.138237 962.149551H80.613841a35.828374 35.828374 0 0 1-35.787935-35.787936V80.532965a35.828374 35.828374 0 0 1 35.787935-35.787936h696.125896a35.828374 35.828374 0 0 1 35.787936 35.787936v223.684707h44.745029V80.532965A80.755376 80.755376 0 0 0 776.739737 0H80.613841A80.755376 80.755376 0 0 0 0.080877 80.532965v845.82865A80.755376 80.755376 0 0 0 80.613841 1006.914799h570.524396z" p-id="5643"></path><path d="M1010.695784 557.644782c-6.247724-5.62093-13.304216-11.96975-14.90153-16.802132-1.71863-5.277204 0.262849-14.537585 2.143232-23.47446 3.073314-14.052325 6.429697-29.924376-2.203889-41.853687s-24.869582-13.708599-39.083661-15.14416c-8.572929-0.930082-18.197255-1.880383-22.48372-5.034574s-8.087669-11.989969-11.626024-19.855228c-5.762464-13.304216-12.232599-28.306842-26.487117-33.017909a26.669089 26.669089 0 0 0-8.249422-1.314246c-10.877915 0-21.371666 6.065752-31.440814 12.131503-8.087669 4.65041-16.175338 9.482792-21.917583 9.482792s-13.951229-4.812163-21.937802-9.482792c-10.109586-5.903998-20.52246-12.131504-31.420594-12.131503a26.709527 26.709527 0 0 0-8.289861 1.314246c-14.153421 4.670629-20.78531 19.713693-26.547774 33.017909-3.477698 7.865258-7.319341 16.761694-11.504709 19.855228s-14.011887 4.043835-22.605035 5.034574c-14.153421 1.45578-30.328759 3.133972-39.083661 15.14416s-5.095232 27.801362-2.20389 41.853687c2.021917 8.936874 3.861862 18.197255 2.20389 23.47446-1.536657 4.832382-8.613368 11.160983-14.820654 16.802132-10.918353 9.705203-23.21161 20.76509-23.21161 36.071004s12.293257 26.284924 23.21161 36.111443c6.227505 5.600711 13.304216 11.96975 14.820654 16.822351 1.657972 5.196327-0.262849 14.497147-2.20389 23.393583-2.911561 14.052325-6.369039 29.964814 2.20389 41.873907s24.869582 13.68838 39.083661 15.164379c8.572929 0.849205 18.197255 1.860164 22.605035 4.973917s8.087669 12.010189 11.504709 19.855227c5.762464 13.283996 12.394353 28.306842 26.547774 33.058348a25.233527 25.233527 0 0 0 8.289861 1.294027c10.898134 0 21.331227-6.065752 31.420594-12.131504 8.087669-4.609971 16.175338-9.54345 21.937802-9.543449s13.93101 4.913259 21.917583 9.543449c10.109586 5.964656 20.562899 12.131504 31.440814 12.131504a26.102952 26.102952 0 0 0 8.249422-1.294027c14.153421-4.65041 20.724652-19.754132 26.487117-33.058348 3.477698-7.845039 7.319341-16.802132 11.626024-19.855227s13.951229-4.043835 22.48372-4.973917c14.274736-1.516438 30.328759-3.133972 39.083661-15.164379s5.277204-27.821582 2.203889-41.873907c-1.900602-8.916655-3.861862-18.197255-2.143232-23.393583 1.577095-4.852601 8.653806-11.262079 14.90153-16.822351 10.837477-9.725422 23.130734-20.78531 23.130734-36.111443s-12.293257-26.284924-23.130734-36.071004m-176.311185 109.304848a73.193405 73.193405 0 1 1 72.546391-73.233844 72.890117 72.890117 0 0 1-72.546391 73.233844m0 0" p-id="5644"></path><path d="M902.624306 805.390305a47.231987 47.231987 0 0 1-14.861091 2.345424c-16.62016 0-30.773581-8.249422-42.136756-14.881311-3.235068-1.900602-8.249422-4.812163-11.24186-6.187067-3.032876 1.374904-8.087669 4.306684-11.282299 6.187067-11.403613 6.611669-25.455938 14.881311-42.096317 14.881311a45.69533 45.69533 0 0 1-14.800435-2.345424c-14.052325-4.589752-22.989199-14.153421-29.418896-24.606733v231.610623a11.565367 11.565367 0 0 0 6.874519 10.594846 11.403613 11.403613 0 0 0 12.353914-2.021917L834.384599 948.279198l78.308855 72.667707a11.444052 11.444052 0 0 0 7.723724 3.032876 10.695942 10.695942 0 0 0 4.670629-1.010959 11.383394 11.383394 0 0 0 6.773423-10.594846V780.682476c-6.288163 10.352216-15.40701 20.219173-29.236924 24.707829m0 0" p-id="5645"></path></svg>