<?xml version="1.0" standalone="no"?><!DOCTYPE svg PUBLIC "-//W3C//DTD SVG 1.1//EN" "http://www.w3.org/Graphics/SVG/1.1/DTD/svg11.dtd"><svg t="1511765173070" class="icon" style="" viewBox="0 0 1000 1000" version="1.1" xmlns="http://www.w3.org/2000/svg" p-id="3143" xmlns:xlink="http://www.w3.org/1999/xlink" width="200" height="200"><defs><style type="text/css"></style></defs><path d="M844.536 926.1401h-62.40524785711502c-18.0025-41.2051-59.1193-70.0915-106.9908-70.0915s-88.9883 28.8854-106.9908 70.0915H431.6550357422322c-18.0025-41.2051-59.1193-70.0915-106.9908-70.0915s-88.9883 28.8854-106.9918 70.0915h-39.04013143627509c-61.287 0-110.9843-49.6943-110.9843-110.9788V149.284784915827c0-61.2844 49.6973-110.9798 110.9843-110.9798h39.04013143627509c18.0035 41.2071 59.1203 70.0925 106.9918 70.0925s88.9883-28.8854 106.9908-70.0925h136.495052651461c18.0025 41.2071 59.1193 70.0925 106.9908 70.0925s88.9883-28.8854 106.9908-70.0925h62.40524785711502c61.288 0 110.9823 49.6953 110.9823 110.9798v665.8765357087894C955.5173 876.4458 905.824 926.1401 844.536 926.1401L844.536 926.1401zM257.5799 451.9456c-27.1747-7.4599-40.751-16.3589-40.751-26.6729 0.9124-14.0765 10.7921-21.5384 29.5022-22.4738 7.5302 0 16.9072 1.8477 28.1561 5.6132 9.3331 2.7841 15.8819 4.1982 19.6465 4.1982 14.9915-0.9124 22.9544-9.8113 23.8908-26.6719-1.8488-20.626-25.2589-32.3541-70.2782-35.1841-55.3098 3.7654-84.813 30.94-88.5316 81.5457 7.4612 42.1884 32.3324 65.1418 74.4766 68.8613 30.0039 9.3776 44.9953 19.6906 44.9953 30.939-0.9354 19.6906-13.1426 30.0027-36.5537 30.917-8.4416 0-20.1702-2.8301-35.1386-8.4423-12.1613-3.7195-20.6259-5.6122-25.3039-5.6122-15.0144 0.9124-22.9764 9.3766-23.8898 25.3028 0.9134 24.3675 29.9819 36.9859 87.1635 37.9203 58.07-2.7831 88.9873-29.525 92.7519-80.0857C328.3368 482.4519 301.6628 455.71 257.5799 451.9456L257.5799 451.9456zM566.8029 575.6337l-70.2542-195.3536c-8.4206-19.6457-21.5633-29.525-39.3619-29.525-17.8196 0.9813-30.4836 10.7927-37.9668 29.525l-73.0844 195.3536v2.830081204943048c-0.9364 3.7654-1.3931 7.0272-1.3931 9.8333 0.9364 14.9908 9.356 22.5197 25.2829 22.5197 13.1426 0 22.04-5.6582 26.718-16.9065l11.2478-33.7231h99.78143922321482l9.8797 33.7231c4.632 11.2484 13.5304 16.9065 26.673 16.9065 15.9269 0 24.3475-7.0262 25.3039-21.1047C569.6311 585.9927 568.6748 581.2469 566.8029 575.6337L566.8029 575.6337zM703.1581 561.6022h-63.24970993477155V380.2791707222503c-0.9124-17.7979-9.8108-27.1286-26.718-28.1099-16.8623 0.9803-25.7606 10.312-26.697 28.1099v200.96774386965637c0.9364 18.7783 9.8347 28.6336 26.697 29.57h89.96769058109984c14.9915 0 23.8898-7.9626 26.72-23.8878C728.8967 570.0205 720.0203 561.6022 703.1581 561.6022L703.1581 561.6022zM852.1582 506.7734c15.9269-0.9124 24.8252-9.3317 26.673-25.3028-1.8488-15.8812-10.7472-24.3455-26.673-25.2579h-59.05238363162666v-52.044713684122165h63.24970993477155c15.9269-0.8904 24.3685-9.3327 25.3039-25.2579-0.9364-15.0138-9.378-22.9774-25.3039-23.9128h-89.96769058109984c-17.7987 0-26.674 10.314-26.674 30.94v198.1376626647133c0.9124 16.8616 9.8117 25.8045 26.674 26.7409h92.79788774550612c15.9269-0.9364 24.3445-9.3776 25.3039-25.3258-0.9594-15.9262-9.378-23.8888-25.3039-23.8888h-66.07990709917783v-54.8278267334747H852.1581752423706L852.1582 506.7734zM457.1868 406.9971l33.7245 103.9975H423.4402685489343L457.1868 406.9971 457.1868 406.9971z" p-id="3144"></path></svg>