<?xml version="1.0" standalone="no"?><!DOCTYPE svg PUBLIC "-//W3C//DTD SVG 1.1//EN" "http://www.w3.org/Graphics/SVG/1.1/DTD/svg11.dtd"><svg t="1510299105537" class="icon" style="" viewBox="0 0 1024 1024" version="1.1" xmlns="http://www.w3.org/2000/svg" p-id="2461" xmlns:xlink="http://www.w3.org/1999/xlink" width="200" height="200"><defs><style type="text/css"></style></defs><path d="M512 72.704c242.688 0 439.296 196.608 439.296 439.296s-196.608 439.296-439.296 439.296-439.296-196.608-439.296-439.296 196.608-439.296 439.296-439.296z m225.792 186.88h-78.848l-145.92 194.048-145.92-194.048h-78.848l185.344 246.272h-136.192c-6.656 0-12.288 5.632-12.288 12.288v23.552c0 6.656 5.632 12.288 12.288 12.288h144.384v59.904h-144.384c-6.656 0-12.288 5.632-12.288 12.288v23.552c0 6.656 5.632 12.288 12.288 12.288h144.384v91.136c0 6.656 5.632 11.776 12.8 11.776h34.304c7.168 0 12.8-5.632 12.8-11.776v-91.136h144.384c6.656 0 12.288-5.632 12.288-12.288v-23.552c0-6.656-5.12-12.288-12.288-12.288h-144.384v-59.904h144.384c6.656 0 12.288-5.632 12.288-12.288v-23.552c0-6.656-5.12-12.288-12.288-12.288h-133.632l185.344-246.272zM512 0c-282.112 0-512 229.888-512 512s229.888 512 512 512 512-229.888 512-512-229.888-512-512-512" fill="#2c2c2c" p-id="2462"></path></svg>