<?xml version="1.0" standalone="no"?><!DOCTYPE svg PUBLIC "-//W3C//DTD SVG 1.1//EN" "http://www.w3.org/Graphics/SVG/1.1/DTD/svg11.dtd"><svg t="1508900500070" class="icon" style="" viewBox="0 0 1024 1024" version="1.1" xmlns="http://www.w3.org/2000/svg" p-id="3556" xmlns:xlink="http://www.w3.org/1999/xlink" width="200" height="200"><defs><style type="text/css"></style></defs><path d="M828.8 438.4c-48-28.8-220.8-131.2-291.2-176-19.2-12.8-38.4-16-54.4-3.2-9.6 6.4-339.2 208-339.2 208s-28.8 12.8-28.8 70.4l19.2 374.4c0 25.6 22.4 48 51.2 48h643.2c25.6 0 48-22.4 51.2-48l16-371.2v-25.6s0-35.2-67.2-76.8z m-112 400H294.4c-12.8 0-22.4-9.6-22.4-22.4 0-12.8 9.6-22.4 22.4-22.4h419.2c12.8 0 22.4 9.6 22.4 22.4 0 12.8-9.6 22.4-19.2 22.4z m0-115.2H294.4c-12.8 0-22.4-9.6-22.4-22.4 0-12.8 9.6-22.4 22.4-22.4h419.2c12.8 0 22.4 9.6 22.4 22.4 0 12.8-9.6 22.4-19.2 22.4z m0-118.4H294.4c-12.8 0-22.4-9.6-22.4-22.4 0-12.8 9.6-22.4 22.4-22.4h419.2c12.8 0 22.4 9.6 22.4 22.4 0 12.8-9.6 22.4-19.2 22.4z" p-id="3557"></path><path d="M972.8 368L537.6 70.4c-16-9.6-38.4-12.8-54.4 0L54.4 355.2c-22.4 16-28.8 44.8-12.8 67.2 16 22.4 44.8 28.8 67.2 12.8L512 169.6 918.4 448c9.6 6.4 19.2 9.6 25.6 9.6 16 0 28.8-6.4 38.4-19.2 16-25.6 9.6-54.4-9.6-70.4z" p-id="3558"></path></svg>